<?xml version="1.0" encoding="UTF-8"?>
<svg width="100" height="100" viewBox="0 0 100 100" fill="none" xmlns="http://www.w3.org/2000/svg">
  <!-- Brain shape with gradient background -->
  <path d="M50 10 C42 10 30 17 30 35 C15 33 5 45 5 60 C5 75 20 90 35 83 C40 93 55 95 65 83 C80 90 95 75 95 60 C95 45 85 33 70 35 C70 17 58 10 50 10Z" 
        fill="url(#brain-gradient)" />
  
  <!-- Stethoscope detail -->
  <circle cx="40" cy="50" r="8" fill="#16A34A" stroke="white" stroke-width="2" />
  <path d="M40 58 C40 58 35 70 45 80 C55 90 80 85 90 60" stroke="#16A34A" stroke-width="4" stroke-linecap="round" />
  
  <!-- Medical cross symbol -->
  <rect x="65" y="25" width="16" height="16" rx="2" fill="#0C4A6E" />
  <rect x="60" y="30" width="26" height="6" rx="2" fill="#0C4A6E" />
  
  <!-- AI/Neural connection dots -->
  <circle cx="25" cy="40" r="4" fill="#0C4A6E" />
  <circle cx="35" cy="55" r="4" fill="#0C4A6E" />
  <circle cx="55" cy="30" r="4" fill="#0C4A6E" />
  <circle cx="60" cy="60" r="4" fill="#0C4A6E" />
  
  <!-- Connection lines -->
  <path d="M25 40 L35 55 L55 30 M35 55 L60 60" stroke="#0C4A6E" stroke-width="2" stroke-linecap="round" />
  
  <!-- Gradients -->
  <defs>
    <linearGradient id="brain-gradient" x1="5" y1="10" x2="95" y2="90" gradientUnits="userSpaceOnUse">
      <stop offset="0%" stop-color="#0EA5E9" />
      <stop offset="100%" stop-color="#0C4A6E" />
    </linearGradient>
  </defs>
</svg>